<svg class="svg-icon" style="width: 1em; height: 1em;vertical-align: middle;fill: currentColor;overflow: hidden;" viewBox="0 0 1024 1024" version="1.1" xmlns="http://www.w3.org/2000/svg"><path d="M631.466667 870.4c0 12.561067-10.194489 22.755556-22.755556 22.755556l-182.044444 0c-12.561067 0-22.755556-10.194489-22.755556-22.755556s10.194489-22.755556 22.755556-22.755556l182.044444 0C621.272178 847.644444 631.466667 857.838933 631.466667 870.4zM608.711111 904.533333l-182.044444 0c-14.973156 0-26.567111 14.461156-21.583644 30.173867 3.003733 9.477689 12.5952 15.337244 22.539378 15.337244l0.341333 0c13.141333 0 25.156267 7.429689 31.038578 19.182933l0.238933 0.477867C467.171556 985.543111 483.362133 995.555556 501.077333 995.555556l33.223111 0c17.7152 0 33.905778-10.012444 41.824711-25.850311l0.238933-0.477867c5.882311-11.753244 17.897244-19.182933 31.038578-19.182933l0.341333 0c9.944178 0 19.535644-5.859556 22.539378-15.337244C635.278222 918.994489 623.684267 904.533333 608.711111 904.533333zM517.688889 176.355556c12.561067 0 22.755556-10.194489 22.755556-22.755556l0-91.022222c0-12.561067-10.194489-22.755556-22.755556-22.755556s-22.755556 10.194489-22.755556 22.755556l0 91.022222C494.933333 166.161067 505.127822 176.355556 517.688889 176.355556zM276.332089 262.997333c4.437333 4.448711 10.262756 6.667378 16.088178 6.667378s11.650844-2.218667 16.088178-6.667378c8.886044-8.886044 8.886044-23.290311 0-32.176356l-64.364089-64.364089c-8.874667-8.886044-23.301689-8.886044-32.176356 0-8.886044 8.886044-8.886044 23.290311 0 32.176356L276.332089 262.997333zM221.866667 472.177778c0-12.561067-10.194489-22.755556-22.755556-22.755556l-91.022222 0c-12.561067 0-22.755556 10.194489-22.755556 22.755556s10.194489 22.755556 22.755556 22.755556l91.022222 0C211.672178 494.933333 221.866667 484.738844 221.866667 472.177778zM276.332089 681.358222l-64.364089 64.364089c-8.886044 8.886044-8.886044 23.290311 0 32.176356 4.437333 4.448711 10.262756 6.667378 16.088178 6.667378s11.650844-2.218667 16.088178-6.667378l64.364089-64.364089c8.886044-8.886044 8.886044-23.290311 0-32.176356C299.633778 672.472178 285.206756 672.472178 276.332089 681.358222zM759.045689 681.358222c-8.886044-8.886044-23.290311-8.886044-32.176356 0s-8.886044 23.290311 0 32.176356l64.364089 64.364089c4.448711 4.448711 10.262756 6.667378 16.088178 6.667378s11.639467-2.218667 16.088178-6.667378c8.886044-8.886044 8.886044-23.290311 0-32.176356L759.045689 681.358222zM927.288889 449.422222l-91.022222 0c-12.561067 0-22.755556 10.194489-22.755556 22.755556s10.194489 22.755556 22.755556 22.755556l91.022222 0c12.561067 0 22.755556-10.194489 22.755556-22.755556S939.849956 449.422222 927.288889 449.422222zM742.957511 269.664711c5.825422 0 11.639467-2.218667 16.088178-6.667378l64.364089-64.364089c8.886044-8.886044 8.886044-23.290311 0-32.176356s-23.290311-8.886044-32.176356 0l-64.364089 64.364089c-8.886044 8.886044-8.886044 23.290311 0 32.176356C731.306667 267.446044 737.132089 269.664711 742.957511 269.664711zM631.466667 813.511111c0 12.561067-10.194489 22.755556-22.755556 22.755556l-182.044444 0c-12.561067 0-22.755556-10.194489-22.755556-22.755556 0-12.117333 9.500444-21.936356 21.447111-22.619022C411.192889 662.846578 278.755556 634.322489 278.755556 483.555556c0-131.959467 106.973867-238.933333 238.933333-238.933333s238.933333 106.973867 238.933333 238.933333c0 150.766933-132.437333 179.291022-146.602667 307.336533C621.966222 791.574756 631.466667 801.393778 631.466667 813.511111zM465.248711 308.451556c-3.538489-8.726756-13.471289-12.925156-22.232178-9.409422-58.151822 23.563378-102.240711 73.9328-117.930667 134.735644-2.3552 9.136356 3.140267 18.432 12.265244 20.7872C338.773333 454.940444 340.206933 455.111111 341.617778 455.111111c7.600356 0 14.529422-5.108622 16.520533-12.8 12.993422-50.3808 49.516089-92.114489 97.6896-111.627378C464.566044 327.145244 468.775822 317.201067 465.248711 308.451556z"  /></svg>