<?xml version="1.0" encoding="utf-8"?>
<!-- Generator: Adobe Illustrator 24.2.1, SVG Export Plug-In . SVG Version: 6.00 Build 0)  -->
<!DOCTYPE svg PUBLIC "-//W3C//DTD SVG 1.1//EN" "http://www.w3.org/Graphics/SVG/1.1/DTD/svg11.dtd" [
	<!ENTITY ns_extend "http://ns.adobe.com/Extensibility/1.0/">
	<!ENTITY ns_ai "http://ns.adobe.com/AdobeIllustrator/10.0/">
	<!ENTITY ns_graphs "http://ns.adobe.com/Graphs/1.0/">
	<!ENTITY ns_vars "http://ns.adobe.com/Variables/1.0/">
	<!ENTITY ns_imrep "http://ns.adobe.com/ImageReplacement/1.0/">
	<!ENTITY ns_sfw "http://ns.adobe.com/SaveForWeb/1.0/">
	<!ENTITY ns_custom "http://ns.adobe.com/GenericCustomNamespace/1.0/">
	<!ENTITY ns_adobe_xpath "http://ns.adobe.com/XPath/1.0/">
]>
<svg version="1.1" id="Layer_1" xmlns:x="&ns_extend;" xmlns:i="&ns_ai;" xmlns:graph="&ns_graphs;"
	 xmlns="http://www.w3.org/2000/svg" xmlns:xlink="http://www.w3.org/1999/xlink" x="0px" y="0px" width="2048px" height="2048px"
	 viewBox="0 0 2048 2048" style="enable-background: new 0 0 2048 2048;" xml:space="preserve">
<style type="text/css">
	.Drop_x0020_Shadow{fill:none;}
	.Round_x0020_Corners_x0020_2_x0020_pt{fill:#FFFFFF;stroke:#231F20;stroke-miterlimit:10;}
	.Live_x0020_Reflect_x0020_X{fill:none;}
	.Bevel_x0020_Soft{fill:url(#SVGID_1_);}
	.Dusk{fill:#FFFFFF;}
	.Foliage_GS{fill:#FFDD00;}
	.Pompadour_GS{fill-rule:evenodd;clip-rule:evenodd;fill:#44ADE2;}
	.st0{fill:#E3F4FC;}
	.st1{fill:#307AC7;}
	.st2{fill:#3F3D56;}
	.st3{fill:#CCEDFF;}
	.st4{fill:#FFB9B9;}
	.st5{fill:#98D6FF;}
	.st6{fill:#FFFFFF;}
</style>
<metadata>
	<sfw  xmlns="&ns_sfw;">
		<slices></slices>
		<sliceSourceBounds  bottomLeftOrigin="true" height="1237.4" width="1605.7" x="221.1" y="-1642.7"></sliceSourceBounds>
	</sfw>
</metadata>
<linearGradient id="SVGID_1_" gradientUnits="userSpaceOnUse" x1="0" y1="0" x2="0.7071" y2="0.7071">
	<stop  offset="0" style="stop-color:#DEDFE3"/>
	<stop  offset="0.1783" style="stop-color:#DADBDF"/>
	<stop  offset="0.3611" style="stop-color:#CECFD3"/>
	<stop  offset="0.546" style="stop-color:#B9BCBF"/>
	<stop  offset="0.7324" style="stop-color:#9CA0A2"/>
	<stop  offset="0.9181" style="stop-color:#787D7E"/>
	<stop  offset="1" style="stop-color:#656B6C"/>
</linearGradient>
<g>
	<path class="st0" d="M249.7,1642.7h1552.1c0,0,239.4-920-761.3-637.5l-196.4,86.1c0,0-247.5-113-411.6-43S169,1397.9,249.7,1642.7z
		"/>
	<g>
		<g>
			<g>
				<path class="st1" d="M1557,636.3v571.2H774.2V636.3c0-21.8,17.7-39.5,39.5-39.5h703.9C1539.4,596.9,1557,614.5,1557,636.3z"/>
				<path class="st2" d="M1557.6,1208.1H773.6V636.3c0-22.1,18-40,40-40h703.9c22.1,0,40,18,40,40V1208.1z M774.8,1206.9h781.6
					V636.3c0-21.4-17.4-38.9-38.9-38.9H813.7c-21.4,0-38.9,17.4-38.9,38.9V1206.9z"/>
			</g>
			<path class="st2" d="M1557,636.3V674H774.2v-37.7c0-21.8,17.7-39.5,39.5-39.5h703.9C1539.4,596.9,1557,614.5,1557,636.3z"/>
			<g>
				<rect x="1073.7" y="708" class="st3" width="217" height="226"/>
				<path class="st2" d="M1291.3,934.6h-218.2V707.5h218.2V934.6z M1074.3,933.4h215.8V708.6h-215.8V933.4z"/>
			</g>
			<g>
				<rect x="1305.1" y="708" class="st3" width="217" height="226"/>
				<path class="st2" d="M1522.6,934.6h-218.2V707.5h218.2V934.6z M1305.6,933.4h215.8V708.6h-215.8V933.4z"/>
			</g>
			<g>
				<rect x="1073.7" y="950.1" class="st3" width="217" height="226"/>
				<path class="st2" d="M1291.3,1176.7h-218.2V949.6h218.2V1176.7z M1074.3,1175.5h215.8V950.7h-215.8V1175.5z"/>
			</g>
			<g>
				<rect x="1305.1" y="950.1" class="st3" width="217" height="226"/>
				<path class="st2" d="M1522.6,1176.7h-218.2V949.6h218.2V1176.7z M1305.6,1175.5h215.8V950.7h-215.8V1175.5z"/>
			</g>
			<g>
				<path class="st3" d="M1015.7,708.6H829.2c-7.3,0-13.2,5.9-13.2,13.2v64.6c0,7.3,5.9,13.2,13.2,13.2h182.9l16.7,16.7v-16.7v-77.7
					C1028.9,714.5,1023,708.6,1015.7,708.6z"/>
				<g>
					<rect x="845.4" y="725.3" class="st2" width="163.2" height="1.8"/>
					<rect x="836.4" y="738.5" class="st2" width="172.2" height="1.8"/>
					<rect x="836.4" y="751.6" class="st2" width="172.2" height="1.8"/>
					<rect x="836.4" y="764.8" class="st2" width="172.2" height="1.8"/>
					<rect x="836.4" y="777.9" class="st2" width="172.2" height="1.8"/>
				</g>
			</g>
			<g>
				<path class="st0" d="M1018.6,925.2H872c-5.7,0-10.3,4.6-10.3,10.3v50.7c0,5.7,4.6,10.3,10.3,10.3h143.8l13.2,13.2v-13.2v-61.1
					C1028.9,929.8,1024.3,925.2,1018.6,925.2z"/>
				<g>
					<rect x="884.7" y="938.3" class="st2" width="128.3" height="1.4"/>
					<rect x="877.6" y="948.6" class="st2" width="135.4" height="1.4"/>
					<rect x="877.6" y="959" class="st2" width="135.4" height="1.4"/>
					<rect x="877.6" y="969.3" class="st2" width="135.4" height="1.4"/>
					<rect x="877.6" y="979.6" class="st2" width="135.4" height="1.4"/>
				</g>
			</g>
			<g>
				<path class="st4" d="M827,826.1h155.1c6,0,10.9,4.9,10.9,10.9v53.7c0,6-4.9,10.9-10.9,10.9H830l-13.9,13.9v-13.9V837
					C816.1,831,821,826.1,827,826.1z"/>
				<g>
					
						<rect x="833" y="840" transform="matrix(-1 -4.490065e-11 4.490065e-11 -1 1801.5936 1681.4064)" class="st2" width="135.7" height="1.5"/>
					
						<rect x="833" y="850.9" transform="matrix(-1 -4.489399e-11 4.489399e-11 -1 1809.1104 1703.2731)" class="st2" width="143.2" height="1.5"/>
					
						<rect x="833" y="861.8" transform="matrix(-1 -4.489399e-11 4.489399e-11 -1 1809.1104 1725.1396)" class="st2" width="143.2" height="1.5"/>
					
						<rect x="833" y="872.8" transform="matrix(-1 -4.489399e-11 4.489399e-11 -1 1809.1104 1747.0063)" class="st2" width="143.2" height="1.5"/>
					
						<rect x="833" y="883.7" transform="matrix(-1 -4.489399e-11 4.489399e-11 -1 1809.1104 1768.8729)" class="st2" width="143.2" height="1.5"/>
				</g>
			</g>
			<g>
				<path class="st3" d="M827,1015.7h155.1c6,0,10.9,4.9,10.9,10.9v53.7c0,6-4.9,10.9-10.9,10.9H830l-13.9,13.9v-13.9v-64.6
					C816.1,1020.6,821,1015.7,827,1015.7z"/>
				<g>
					
						<rect x="833" y="1029.6" transform="matrix(-1 -4.490065e-11 4.490065e-11 -1 1801.5936 2060.6907)" class="st2" width="135.7" height="1.5"/>
					
						<rect x="833" y="1040.5" transform="matrix(-1 -4.486867e-11 4.486867e-11 -1 1809.1104 2082.5574)" class="st2" width="143.2" height="1.5"/>
					
						<rect x="833" y="1051.5" transform="matrix(-1 -4.489399e-11 4.489399e-11 -1 1809.1104 2104.4241)" class="st2" width="143.2" height="1.5"/>
					
						<rect x="833" y="1062.4" transform="matrix(-1 -4.489399e-11 4.489399e-11 -1 1809.1104 2126.2905)" class="st2" width="143.2" height="1.5"/>
					
						<rect x="833" y="1073.3" transform="matrix(-1 -4.490687e-11 4.490687e-11 -1 1809.1104 2148.1572)" class="st2" width="143.2" height="1.5"/>
				</g>
			</g>
			<rect x="914.1" y="1109.3" class="st3" width="88.8" height="29.6"/>
			<rect x="814.6" y="1149.6" class="st3" width="215.2" height="36.3"/>
			<g>
				<circle class="st5" cx="826.8" cy="634.8" r="11.7"/>
				<path class="st2" d="M826.8,647.1c-6.8,0-12.2-5.5-12.2-12.2s5.5-12.2,12.2-12.2s12.2,5.5,12.2,12.2S833.6,647.1,826.8,647.1z
					 M826.8,623.7c-6.1,0-11.1,5-11.1,11.1s5,11.1,11.1,11.1s11.1-5,11.1-11.1S832.9,623.7,826.8,623.7z"/>
			</g>
			<circle class="st4" cx="871.7" cy="634.8" r="11.7"/>
			<circle class="st3" cx="916.5" cy="634.8" r="11.7"/>
			<g>
				<g>
					<g>
						<path class="st4" d="M1100.7,865.9l-4-24.2c0,0-6.3-4.9-7.2-1.8c0,0-7.6-8.5-9-5.4s-5.4,20.2-1.3,28.2
							c4,8.1,15.1,17.9,15.1,17.9L1100.7,865.9z"/>
						<path class="st2" d="M1094.4,881.1l-0.3-0.3c-0.1-0.1-11.1-10-15.2-18c-4-8.1-0.1-25,1.3-28.5c0.2-0.5,0.6-0.8,1-0.9
							c2.2-0.4,6.8,4.4,8.1,5.8c0.2-0.3,0.5-0.6,0.9-0.7c2.1-0.7,6.4,2.7,6.6,2.8l0.1,0.1l0,0.1l4,24.3L1094.4,881.1z M1081.6,834.1
							c-0.1,0-0.1,0-0.2,0c-0.3,0-0.5,0.2-0.6,0.5c-1.5,3.4-5.3,20.1-1.4,28c3.6,7.2,12.9,15.9,14.7,17.6l6.2-14.3l-4-24
							c-1.2-1-4.5-3.1-5.9-2.6c-0.3,0.1-0.6,0.4-0.7,0.8l-0.1,0.5l-0.4-0.4C1087.7,838.3,1083.5,834.1,1081.6,834.1z"/>
					</g>
					<path class="st2" d="M1088.6,853.4c-0.1,0-0.2,0-0.2,0c-0.3,0-0.6-0.2-0.8-0.5c-1.5-2.1,1.4-12,1.7-13.1l0.6,0.2
						c-0.9,3-2.9,11-1.8,12.6c0.1,0.1,0.2,0.2,0.4,0.2c2.6,0.1,3.9-1.9,3.9-1.9l0.5,0.3C1092.7,851.3,1091.4,853.4,1088.6,853.4z"/>
					<polygon class="st2" points="1087.6,845.6 1079.6,841.2 1079.8,840.7 1087.9,845.1 					"/>
					
						<rect x="1082.9" y="846.2" transform="matrix(0.3502 -0.9367 0.9367 0.3502 -93.0395 1567.4841)" class="st2" width="0.6" height="9.2"/>
					<path class="st2" d="M1088,858.7L1088,858.7l-8.5-2.3l0.2-0.6l8.4,2.3c0.2-0.1,0.9-0.3,1.3-1c0.5-0.9,0.5-2.2-0.2-3.9l0.5-0.2
						c0.7,1.8,0.7,3.3,0.1,4.4C1089.2,858.4,1088.2,858.7,1088,858.7L1088,858.7z"/>
					<path class="st2" d="M1085.5,863.2l-5.6-2l0.2-0.5l5.5,2c0.4-0.1,2-0.5,2.5-1.6c0.3-0.7,0-1.6-0.8-2.6l0.5-0.4
						c0.9,1.2,1.2,2.3,0.8,3.1C1087.9,862.7,1085.7,863.1,1085.5,863.2L1085.5,863.2z"/>
				</g>
				<g>
					<g>
						<path class="st4" d="M1264.4,869.9l4-24.2c0,0,6.3-4.9,7.2-1.8c0,0,7.6-8.5,9-5.4c1.3,3.1,5.4,20.2,1.3,28.2
							c-4,8.1-15.1,17.9-15.1,17.9L1264.4,869.9z"/>
						<path class="st2" d="M1270.7,885.2l-6.6-15.2l0-0.1l4.1-24.3l0.1-0.1c0.2-0.1,4.5-3.5,6.6-2.8c0.4,0.1,0.7,0.4,0.9,0.7
							c1.3-1.4,5.9-6.2,8.1-5.8c0.5,0.1,0.8,0.4,1,0.9c1.5,3.4,5.4,20.4,1.3,28.5c-4,8-15,17.9-15.2,18L1270.7,885.2z M1264.7,869.9
							l6.2,14.3c1.8-1.6,11.1-10.4,14.7-17.6c4-7.9,0.1-24.6-1.4-28c-0.1-0.3-0.3-0.5-0.6-0.5c-1.8-0.3-6.3,4.2-7.9,6l-0.4,0.4
							l-0.1-0.5c-0.1-0.4-0.3-0.7-0.7-0.8c-1.5-0.5-4.7,1.7-5.9,2.6L1264.7,869.9z"/>
					</g>
					<path class="st2" d="M1276.5,857.4c-2.8,0-4.1-2.1-4.2-2.2l0.5-0.3c0.1,0.1,1.3,2,3.9,1.9c0.2,0,0.3-0.1,0.4-0.2
						c1.2-1.6-0.9-9.7-1.8-12.6l0.6-0.2c0.3,1.1,3.2,11,1.7,13.1c-0.2,0.3-0.5,0.5-0.8,0.5C1276.6,857.4,1276.6,857.4,1276.5,857.4z
						"/>
					<polygon class="st2" points="1277.4,849.7 1277.2,849.2 1285.2,844.8 1285.5,845.3 					"/>
					
						<rect x="1277.2" y="854.5" transform="matrix(0.9363 -0.3511 0.3511 0.9363 -218.538 504.5055)" class="st2" width="9.2" height="0.6"/>
					<path class="st2" d="M1277,862.7L1277,862.7c-0.1,0-1.2-0.2-1.8-1.3c-0.6-1.1-0.6-2.5,0.1-4.4l0.5,0.2c-0.6,1.7-0.7,3-0.2,3.9
						c0.4,0.7,1.1,1,1.3,1l8.4-2.3l0.2,0.6L1277,862.7z"/>
					<path class="st2" d="M1279.6,867.2L1279.6,867.2c-0.2,0-2.4-0.4-3-2c-0.4-0.9-0.1-1.9,0.8-3.1l0.5,0.4c-0.8,1-1,1.9-0.8,2.6
						c0.4,1.1,2.1,1.5,2.5,1.6l5.5-2l0.2,0.5L1279.6,867.2z"/>
				</g>
				<g>
					<path class="st1" d="M1266,858.1l-17.9,19.7c0,0-20.6-49-22.7-52.9c-2.1-3.9-36.2-10.5-36.2-10.5l-6.7,3.7l-6.7-3.7
						c0,0-34.1,6.6-36.2,10.5c-2.1,3.9-22.7,52.9-22.7,52.9l-17.9-19.7l-11.4,28.1l22.3,25.9c7.1,8.2,20.3,6.7,25.3-2.9l12.8-24.2
						v49h32.4h4h32.4v-49l12.8,24.2c5.1,9.6,18.2,11.1,25.3,2.9l22.3-25.9L1266,858.1z"/>
					<path class="st2" d="M1217.2,934.3h-69.5v-48.1l-12.2,23.2c-2.4,4.6-7,7.7-12.1,8.3c-5.2,0.6-10.3-1.4-13.7-5.4l-22.4-26
						l0.1-0.2l11.5-28.5l17.9,19.7c2.2-5.1,20.6-48.8,22.5-52.5c2.1-4,35-10.3,36.4-10.6l0.1,0l6.6,3.6l6.6-3.6l0.1,0
						c1.4,0.3,34.2,6.6,36.4,10.6c2,3.7,20.4,47.4,22.5,52.5l17.9-19.7l0.2,0.4l11.4,28.3l-0.1,0.1l-22.3,25.9
						c-3.4,3.9-8.5,5.9-13.7,5.4c-5.2-0.6-9.7-3.7-12.1-8.3l-12.2-23.2V934.3z M1148.4,933.7h68.3v-49.9L1230,909
						c2.4,4.5,6.6,7.4,11.7,8c5,0.6,9.9-1.3,13.2-5.2l22.2-25.7l-11.1-27.5l-17.9,19.7l-0.2-0.4c-0.2-0.5-20.6-49-22.7-52.9
						c-1.7-3.1-26.3-8.5-35.9-10.3l-6.7,3.7l-6.7-3.7c-9.5,1.8-34.2,7.2-35.9,10.3c-2.1,3.8-22.5,52.4-22.7,52.9l-0.2,0.4l-0.3-0.3
						l-17.6-19.4l-11.1,27.5l22.2,25.7c3.3,3.9,8.1,5.7,13.2,5.2c5.1-0.6,9.3-3.5,11.7-8l13.3-25.2V933.7z"/>
				</g>
				<g>
					<path class="st2" d="M1164.1,793.2c0,0-12.3-30.9-4.3-36.8c8.1-5.8,34.1-2,37,5.6c0,0,8.7,2.5,8.1,10.5s-6.5,27.8-6.5,27.8
						s-15.9-0.9-16.6-1.3C1181.2,798.6,1164.1,793.2,1164.1,793.2z"/>
					<g>
						<path class="st4" d="M1163.9,774.2v29.4c0,0,1.6,7.6,10.2,9.2l0.2,4.4c0.3,5.5,4.9,9.8,10.4,9.8l0,0c5.7,0,10.4-4.6,10.4-10.4
							v-11.4c0,0,7.3,0.8,7.9-7.3c0.5-8.1-5-11-7.3-9.4v-13.4C1195.6,774.9,1183.3,782.3,1163.9,774.2z"/>
						<path class="st2" d="M1184.7,827.2c-5.7,0-10.3-4.4-10.7-10.1l-0.2-4.1c-8.5-1.7-10.2-9.3-10.2-9.4l0-29.9l0.4,0.2
							c19,8,31.3,0.9,31.5,0.8l0.4-0.3v13.4c1-0.4,2.3-0.2,3.5,0.4c1,0.6,4.3,3,3.9,9.5c-0.2,2.6-1,4.6-2.6,5.9
							c-2,1.6-4.4,1.7-5.3,1.7v11.1C1195.4,822.4,1190.6,827.2,1184.7,827.2z M1164.2,774.6v28.9c0,0,1.6,7.4,10,8.9l0.2,0l0.3,4.6
							c0.3,5.3,4.7,9.5,10.1,9.5c5.6,0,10.1-4.5,10.1-10.1v-11.7l0.3,0c0,0,3,0.3,5.1-1.6c1.4-1.2,2.2-3.1,2.4-5.5
							c0.4-6.2-2.7-8.4-3.6-9c-1.2-0.7-2.5-0.8-3.3-0.2l-0.5,0.3v-13.4C1193,776.6,1181.3,781.6,1164.2,774.6z"/>
					</g>
				</g>
				
					<rect x="1147.5" y="832.9" transform="matrix(0.9999 -1.003088e-02 1.003088e-02 0.9999 -8.5582 11.5567)" class="st2" width="0.6" height="52.1"/>
				<rect x="1216.7" y="837.8" class="st2" width="0.6" height="47.1"/>
				<circle class="st2" cx="1184.8" cy="789.6" r="1.6"/>
				<circle class="st2" cx="1171" cy="789.6" r="1.6"/>
				<path class="st2" d="M1174.5,798.7c-0.8,0-1.5-0.1-1.9-0.5c-0.2-0.2-0.4-0.5-0.4-0.8c-0.1-1.9,3.2-5.8,3.4-6l0.4,0.4
					c-0.9,1.1-3.3,4.2-3.2,5.6c0,0.2,0.1,0.3,0.2,0.4c1.1,0.9,4.7-0.1,6-0.6l0.2,0.5C1178.8,797.8,1176.4,798.7,1174.5,798.7z"/>
				<path class="st6" d="M1169.1,801.4l14.2-0.4C1183.3,801,1177.9,811.3,1169.1,801.4z"/>
				<path class="st2" d="M1128,890.1c-0.6-7.8-11.1-12-11.2-12l0.2-0.5c0.4,0.2,10.9,4.3,11.5,12.5L1128,890.1z"/>
				<path class="st2" d="M1132.3,880c-1.4-5.5-15-2.5-15.2-2.5l-0.1-0.6c0.6-0.1,14.3-3.2,15.9,2.9L1132.3,880z"/>
				<path class="st2" d="M1237.6,890.4h-0.6c0-12.1,10.9-12.8,11-12.8l0,0.6C1247.6,878.1,1237.6,878.8,1237.6,890.4z"/>
				<path class="st2" d="M1233.7,879.9l-0.5-0.4c5.6-7.1,14.5-2.9,14.6-2.8l-0.3,0.5C1247.5,877.2,1239,873.2,1233.7,879.9z"/>
				<path class="st2" d="M1147.5,869c-1.4-9.9-4-28.8-4.1-29.2l0.6-0.1c0.1,0.3,3.7,26.3,4.1,29.2L1147.5,869z"/>
				
					<rect x="1203.4" y="856.9" transform="matrix(0.1014 -0.9948 0.9948 0.1014 242.3869 1982.8096)" class="st2" width="30.9" height="0.6"/>
				<path class="st2" d="M1183.1,785.2c0,0,7.7,1.5,7.7,0.9S1184.9,782.4,1183.1,785.2z"/>
				<path class="st2" d="M1175.2,784.4c0,0-7.7,1.5-7.7,0.9S1173.5,781.6,1175.2,784.4z"/>
				<path class="st2" d="M1174.1,812.5c0,0,10.4-0.1,14.8-5.6c0,0-3.9,10.1-14.3,9.8L1174.1,812.5z"/>
			</g>
			<g>
				<path class="st5" d="M1354.1,829.3l117.9,5c6.7,0.3,12.5,4.6,14.7,10.9l30.5,88.8h-206.2l26.9-93
					C1339.9,833.8,1346.6,829,1354.1,829.3z"/>
				<path class="st2" d="M1517.5,934.3h-207l27.1-93.4c2.1-7.3,8.9-12.2,16.6-11.9l117.9,5c6.8,0.3,12.7,4.7,14.9,11.1L1517.5,934.3
					z M1311.3,933.7h205.4l-30.3-88.4c-2.1-6.2-7.8-10.5-14.4-10.7l-117.9-5c-7.3-0.3-13.9,4.4-16,11.5L1311.3,933.7z"/>
			</g>
			<g>
				<line class="st5" x1="1366" y1="874.8" x2="1360" y2="934.5"/>
				
					<rect x="1333" y="904.2" transform="matrix(0.1016 -0.9948 0.9948 0.1016 324.6041 2168.7048)" class="st2" width="59.9" height="0.9"/>
			</g>
			<g>
				<line class="st5" x1="1459.5" y1="878.6" x2="1477.7" y2="934"/>
				
					<rect x="1468.1" y="877.2" transform="matrix(0.9502 -0.3116 0.3116 0.9502 -209.2972 502.7486)" class="st2" width="0.9" height="58.3"/>
			</g>
			<path class="st2" d="M1434.2,832.7l9.6,6l1.8,17.9l-8.7-6.6c0,0-25.7,39.8-25.7,38.6s-18.8-35.3-18.8-35.3l-9,2.4l3-24.5h6.6
				L1434.2,832.7z"/>
			<path class="st2" d="M1379.5,791c0,0-18.4-45.7-2.7-52.9s52-13.9,63.7,7.6c0,0,11.7-3.6,13.4,2.7c0,0,27.3-5.4,30.9,19.3
				c3.6,24.7,8.1,36.8,8.1,36.8s-15.2,6.7-21.5,0.4c-6.3-6.3-14.8-44.4-14.8-44.4s-5.4,3.6-9.4,3.6c0,0,8.5,32.3-13.9,37.2
				C1410.9,806.2,1379.5,791,1379.5,791z"/>
			<g>
				<path class="st4" d="M1416.7,850.2h-5.9c-9.6,0-17.4-7.8-17.4-17.4v-35.9h40.8v35.9C1434.2,842.4,1426.4,850.2,1416.7,850.2z"/>
				<path class="st2" d="M1413.8,850.5c-11.4,0-20.7-9.3-20.7-20.7v-33.2h41.4v33.2C1434.5,841.2,1425.2,850.5,1413.8,850.5z
					 M1393.7,797.1v32.7c0,11.1,9,20.1,20.1,20.1s20.1-9,20.1-20.1v-32.7H1393.7z"/>
			</g>
			<g>
				<path class="st4" d="M1380.4,764.1l0.3,34.2c0,0,0.6,20.9,21.2,20c20.6-0.9,32.3-21.5,32.3-21.5s13.4-5.4,13-14.8
					c-0.4-9.4-11.2-11.2-12.6-4.5l-2.7,5.4c0,0-5.4-13-3.6-23.3c0,0-23.3,9.4-31.8,6.3C1388,762.7,1380.4,764.1,1380.4,764.1z"/>
				<path class="st2" d="M1400.6,818.7c-5.5,0-10.1-1.6-13.5-4.8c-6.4-5.9-6.7-15.4-6.7-15.5l-0.3-34.5l0.2,0
					c0.1,0,7.8-1.3,16.3,1.8c8.3,3.1,31.4-6.2,31.6-6.3l0.5-0.2l-0.1,0.5c-1.5,8.9,2.3,19.9,3.3,22.5l2.4-4.8
					c0.6-2.8,2.8-4.4,5.7-4.2c3.5,0.3,7.2,3.4,7.4,8.8c0.4,9.2-11.8,14.5-13.1,15c-0.9,1.5-12.6,20.7-32.5,21.6
					C1401.5,818.6,1401,818.7,1400.6,818.7z M1380.7,764.3l0.3,34c0,0.1,0.3,9.3,6.6,15.1c3.6,3.3,8.4,4.9,14.4,4.6
					c20.2-0.9,31.9-21.2,32-21.4l0.1-0.1l0.1,0c0.1-0.1,13.3-5.4,12.8-14.5c-0.2-5.1-3.7-8-6.9-8.2c-2.6-0.2-4.6,1.3-5.1,3.8l0,0.1
					l-3,6l-0.2-0.6c-0.1-0.1-5.2-12.8-3.7-23c-3.5,1.4-23.6,9-31.6,6.1C1388.9,763.4,1382,764.1,1380.7,764.3z"/>
			</g>
			<path class="st2" d="M1397.4,794.9c-1.3,0-2.7-0.2-4-0.7c-0.7-0.3-1.3-0.8-1.5-1.5c-1.1-3,2.4-9,2.6-9.2l0.5,0.3
				c0,0.1-3.5,5.9-2.5,8.7c0.2,0.6,0.6,1,1.2,1.2c3.9,1.4,8.7-0.1,8.8-0.2l0.2,0.6C1402.4,794.1,1400.1,794.9,1397.4,794.9z"/>
			<circle class="st2" cx="1411.3" cy="778.9" r="2.7"/>
			<circle class="st2" cx="1388.9" cy="778.9" r="2.7"/>
			<path class="st6" d="M1390.2,800.2l19.4-0.9C1409.7,799.3,1402.4,814.5,1390.2,800.2z"/>
			<path class="st2" d="M1406.1,772.6c0,0,11.1-0.4,14.3,0.4C1420.4,773.1,1410.3,766.9,1406.1,772.6z"/>
			<path class="st2" d="M1397,772.6c0,0-11.1-0.4-14.3,0.4C1382.6,773.1,1392.8,766.9,1397,772.6z"/>
			<g>
				<path class="st1" d="M1450,1093.9c0,0,53.5,6.9,60.4,14.6c6.9,7.8,11.4,26.6,11.4,26.6v40.9h-216.7v-44.5
					c0,0,4.8-20.6,21.5-26.3c16.7-5.7,64-14.9,64-14.9L1450,1093.9z"/>
				<path class="st2" d="M1522,1176.4h-217.3v-44.8c0.1-0.3,5-20.9,21.7-26.6c16.6-5.6,63.5-14.9,64-15l0,0l0,0l59.5,3.6
					c2.2,0.3,53.7,7,60.6,14.7c6.8,7.7,11.4,26.5,11.4,26.7L1522,1176.4z M1305.3,1175.8h216.1v-40.7c0-0.1-4.5-18.8-11.3-26.4
					c-6.7-7.6-59.2-14.4-60.2-14.5l-59.4-3.6c-1.6,0.3-47.6,9.4-63.9,14.9c-16.4,5.6-21.3,25.9-21.3,26.1L1305.3,1175.8z"/>
			</g>
			<g>
				
					<ellipse transform="matrix(0.1156 -0.9933 0.9933 0.1156 233.1539 2386.676)" class="st4" cx="1456.9" cy="1062.4" rx="11.5" ry="9.1"/>
				<path class="st2" d="M1456.4,1074.2c-0.3,0-0.6,0-0.9-0.1c-2.5-0.3-4.7-1.8-6.2-4.2c-1.5-2.4-2.1-5.5-1.8-8.6
					c0.8-6.5,5.6-11.2,10.7-10.6c5.2,0.6,8.8,6.3,8,12.8c-0.4,3.1-1.7,5.9-3.7,7.9C1460.8,1073.2,1458.6,1074.2,1456.4,1074.2z
					 M1457.4,1051.2c-4.5,0-8.6,4.4-9.3,10.2c-0.3,3,0.2,5.9,1.7,8.2c1.4,2.3,3.5,3.7,5.8,4c2.3,0.3,4.7-0.6,6.6-2.5
					c1.9-1.9,3.2-4.6,3.5-7.6c0.7-6.1-2.6-11.6-7.5-12.2C1457.9,1051.2,1457.6,1051.2,1457.4,1051.2z"/>
			</g>
			<g>
				
					<ellipse transform="matrix(0.9756 -0.2197 0.2197 0.9756 -199.5132 327.2173)" class="st4" cx="1371.4" cy="1060.6" rx="9.1" ry="11.5"/>
				<path class="st2" d="M1372.3,1072.3c-1.9,0-3.9-0.7-5.6-2.1c-2.2-1.8-3.8-4.5-4.5-7.5c-1.4-6.3,1.5-12.4,6.6-13.6
					c5.1-1.1,10.4,3.1,11.8,9.4l0,0c1.4,6.3-1.5,12.4-6.6,13.6C1373.4,1072.3,1372.9,1072.3,1372.3,1072.3z M1370.5,1049.5
					c-0.5,0-1,0.1-1.6,0.2c-4.8,1.1-7.5,6.9-6.2,12.9c0.7,2.9,2.2,5.5,4.3,7.2c2.1,1.7,4.5,2.3,6.8,1.8c4.8-1.1,7.5-6.9,6.2-12.9
					l0,0C1378.8,1053.3,1374.7,1049.5,1370.5,1049.5z"/>
			</g>
			<g>
				<path class="st4" d="M1455.4,1050c0,25.6-18.4,61.8-40.9,61.8s-40.6-36.2-40.6-61.8c0-25.6,18.3-46.4,40.8-46.4
					S1455.4,1024.4,1455.4,1050z"/>
				<path class="st2" d="M1414.4,1112.1c-10.4,0-20.7-7.6-29-21.4c-7.4-12.3-11.9-27.8-11.9-40.7c0-25.7,18.4-46.7,41.1-46.7
					c22.7,0,41.1,20.9,41.1,46.7C1455.7,1074.5,1438,1112.1,1414.4,1112.1z M1414.6,1003.9c-22.3,0-40.5,20.7-40.5,46.1
					c0,24.2,17.3,61.5,40.4,61.5c23.2,0,40.7-37.3,40.7-61.5C1455.1,1024.6,1436.9,1003.9,1414.6,1003.9z"/>
			</g>
			<path class="st2" d="M1374.1,1058.2c0,0,6.1,16.1,12.6,17.7c6.5,1.6,9,2.2,10.3,3.4c1.3,1.1,4,0.2,6.1-0.2
				c2-0.4,8.3-6.5,20.2-3.6c11.9,2.9,14.1,5.6,16.4,6.5c2.2,0.9,14.3-18.2,14.3-18.2s-2.4,29.8-4.9,33.7s-6,8.5-8.2,10.8
				c-2.2,2.2-2.5,3-8.5,5.8c-6,2.8-15.2,4.6-20.9,4.2c-5.7-0.4-9.7-3.6-15.2-6.1c-5.5-2.5-7.2-3.6-9.6-7c-2.4-3.4-3.3-5.7-5.4-9.3
				c-2.1-3.6-1.2-4.8-3.1-7.2s-2.4-5.5-3.3-9.7C1373.8,1074.8,1374.1,1058.2,1374.1,1058.2z"/>
			<g>
				<path class="st4" d="M1416.9,1083.7c0,0-4.2,2.7-13.7,4.8s-12.2,8.8-8.7,12.7s4.6,8.2,14.1,5.8c9.5-2.4,6.4,0.4,15.9,0.4
					c9.5,0,20.2-8.5,16.4-13.9C1437,1088.2,1424.7,1089.7,1416.9,1083.7z"/>
				<path class="st2" d="M1403.8,1108c-4.3,0-6-2.2-8-4.7c-0.5-0.6-1-1.3-1.6-2c-1.5-1.6-1.9-3.8-1.3-5.9c1.1-3.4,4.9-6.2,10.1-7.3
					c9.3-2.1,13.6-4.7,13.6-4.7l0.2-0.1l0.2,0.1c3.8,2.9,8.7,4,13.1,5c4.8,1.1,8.9,2,10.9,4.9c1.1,1.5,1.2,3.4,0.1,5.4
					c-2.2,4.3-9.5,8.9-16.7,8.9c-4.1,0-5.8-0.5-7.3-0.9c-1.9-0.5-3.1-0.9-8.6,0.5C1406.8,1107.8,1405.2,1108,1403.8,1108z
					 M1416.9,1084.1c-0.9,0.5-5.2,2.8-13.7,4.7c-5,1.1-8.6,3.7-9.7,6.9c-0.6,1.9-0.2,3.8,1.1,5.3c0.6,0.7,1.1,1.3,1.6,2
					c2.5,3.2,4.5,5.7,12.2,3.8c5.6-1.4,6.9-1,8.9-0.5c1.4,0.4,3.1,0.9,7.1,0.9c6.9,0,14.1-4.5,16.2-8.6c0.6-1.3,1.1-3.1-0.1-4.8
					c-1.9-2.6-5.9-3.6-10.6-4.6C1425.7,1088.1,1420.7,1087,1416.9,1084.1z"/>
			</g>
			<path class="st2" d="M1423.9,1046.1c0,0,18.4-1.3,21.1-2s-5.8-6.1-10.8-4.5C1429.2,1041.2,1422.3,1041.6,1423.9,1046.1z"/>
			<path class="st2" d="M1407.3,1045.6c0,0-18.4-1.3-21.1-2s5.8-6.1,10.8-4.5C1402,1040.7,1408.9,1041.2,1407.3,1045.6z"/>
			<circle class="st2" cx="1434.2" cy="1055.1" r="3.1"/>
			<circle class="st2" cx="1397.6" cy="1055.1" r="3.1"/>
			<path class="st2" d="M1417.8,1070.6c-3.5,0-6.5-1.9-6.7-2.1l0.3-0.5c0.1,0,5.7,3.7,10.2,0.9c4.4-2.7-2.3-15.2-2.3-15.3l0.5-0.3
				c0.3,0.5,7,13.1,2.1,16.1C1420.6,1070.3,1419.2,1070.6,1417.8,1070.6z"/>
			<g>
				<g>
					<g>
						<rect x="1127.1" y="1039.7" class="st1" width="89.6" height="56.4"/>
						<path class="st2" d="M1217.1,1096.5h-90.5v-57.3h90.5V1096.5z M1127.6,1095.5h88.6v-55.4h-88.6V1095.5z"/>
					</g>
					<g>
						<polygon class="st1" points="1243.8,1090.4 1219.6,1083.3 1219.6,1051.6 1243.8,1045.3 						"/>
						<path class="st2" d="M1244.2,1091l-25.2-7.3v-32.4l25.2-6.6V1091z M1220,1083l23.3,6.8v-43.8l-23.3,6.1V1083z"/>
					</g>
				</g>
				<path class="st2" d="M1185.8,1147.4c-42,0-76.2-34.2-76.2-76.2c0-42,34.2-76.2,76.2-76.2c42,0,76.2,34.2,76.2,76.2
					C1262,1113.2,1227.8,1147.4,1185.8,1147.4z M1185.8,1001.6c-38.4,0-69.6,31.2-69.6,69.6c0,38.4,31.2,69.6,69.6,69.6
					c38.4,0,69.6-31.2,69.6-69.6C1255.4,1032.8,1224.1,1001.6,1185.8,1001.6z"/>
				
					<rect x="1110.8" y="1066" transform="matrix(0.7676 -0.6409 0.6409 0.7676 -410.1908 1007.4727)" class="st2" width="146.7" height="6.7"/>
			</g>
		</g>
		<g>
			<g>
				<path class="st3" d="M606.8,810.7c0-66.9-54.2-121-121-121s-121,54.2-121,121s54.2,121,121,121c12.3,0,24.2-1.8,35.3-5.2
					l48.7,37.1l-6.7-59.8C589.8,881.6,606.8,848.2,606.8,810.7z"/>
				<path class="st2" d="M570.5,964.9L521,927.2c-11.4,3.4-23.2,5.2-35.2,5.2c-67.1,0-121.6-54.6-121.6-121.6
					s54.6-121.6,121.6-121.6s121.6,54.6,121.6,121.6c0,36.1-15.9,70.2-43.7,93.4L570.5,964.9z M521.2,925.9l47.9,36.4l-6.6-58.7
					l0.2-0.2c27.6-23,43.5-56.8,43.5-92.7c0-66.4-54-120.5-120.5-120.5s-120.5,54-120.5,120.5s54,120.5,120.5,120.5
					c12,0,23.8-1.8,35.2-5.2L521.2,925.9z"/>
			</g>
			<g>
				<circle class="st2" cx="430.6" cy="810.7" r="17.9"/>
				<circle class="st2" cx="485.7" cy="810.7" r="17.9"/>
				<circle class="st2" cx="540.9" cy="810.7" r="17.9"/>
			</g>
		</g>
		<g>
			<path class="st2" d="M1470.2,1547.6l-0.9-0.1c2.1-15.6,7.3-25.8,15.5-30.3c9.6-5.2,19.8-0.6,19.9-0.5l-0.4,0.8
				c-0.1,0-10-4.5-19.1,0.5C1477.3,1522.3,1472.3,1532.3,1470.2,1547.6z"/>
			<path class="st2" d="M1489.6,1546.8l-0.9-0.1c1.8-18-1.5-31.4-9.7-39.8c-10-10.2-24-9.2-24.2-9.2l-0.1-0.9c0.1,0,14.6-1,24.9,9.5
				C1488,1514.9,1491.4,1528.5,1489.6,1546.8z"/>
			<path class="st2" d="M1482.4,1548l-0.9-0.1c4.1-32.8,17-51,27-60.4c10.9-10.3,21.1-12.7,21.2-12.8l0.2,0.9
				c-0.1,0-10,2.5-20.8,12.6C1499.2,1497.5,1486.5,1515.4,1482.4,1548z"/>
			<path class="st2" d="M1480.3,1551.5c-4.7-52.1,20-112.8,20.2-113.4l0.8,0.4c-0.2,0.6-24.8,61-20.1,112.9L1480.3,1551.5z"/>
			<path class="st2" d="M1486.4,1561.1l-0.9-0.3c16-49.9-7.3-100.5-7.5-101l0.8-0.4C1479.1,1460,1502.5,1510.9,1486.4,1561.1z"/>
			<g>
				<g>
					<path class="st4" d="M1593.4,1582.1c0,21.1-14.1,38.9-33.3,44.6v15.4h-124.7v-15.4c-9.6-2.8-18-8.7-23.9-16.5
						c-5.9-7.8-9.4-17.5-9.4-28.1c0-25.7,20.8-46.5,46.5-46.5h98.3c12.8,0,24.5,5.2,32.9,13.6
						C1588.2,1557.6,1593.4,1569.3,1593.4,1582.1z"/>
					<path class="st2" d="M1560.6,1642.7h-125.9v-15.6c-9.4-2.9-17.8-8.7-23.8-16.6c-6.3-8.2-9.6-18.1-9.6-28.4
						c0-26,21.1-47.1,47.1-47.1h98.3c12.6,0,24.4,4.9,33.3,13.8c8.9,8.9,13.8,20.7,13.8,33.3c0,20.6-13.7,39-33.3,45V1642.7z
						 M1436,1641.5h123.5v-15.3l0.4-0.1c19.4-5.7,32.9-23.8,32.9-44c0-12.3-4.8-23.8-13.4-32.5c-8.7-8.7-20.2-13.4-32.5-13.4h-98.3
						c-25.3,0-45.9,20.6-45.9,45.9c0,10.1,3.2,19.7,9.3,27.7c5.9,7.8,14.3,13.6,23.6,16.3l0.4,0.1V1641.5z"/>
				</g>
				<path class="st2" d="M1560.5,1642.6h-125.6V1627c-9.4-2.9-17.8-8.7-23.8-16.6c-6.2-8.2-9.5-18-9.5-28.4c0-25.9,21.1-47,47-47
					h98.3c12.5,0,24.3,4.9,33.2,13.8c8.9,8.9,13.7,20.6,13.7,33.2c0,20.5-13.7,39-33.3,44.9V1642.6z M1435.8,1641.7h123.8v-15.3
					l0.3-0.1c19.4-5.7,33-23.9,33-44.1c0-12.3-4.8-23.9-13.5-32.5c-8.7-8.7-20.3-13.5-32.6-13.5h-98.3c-25.4,0-46,20.6-46,46
					c0,10.1,3.2,19.8,9.3,27.8c5.9,7.8,14.3,13.6,23.6,16.4l0.3,0.1V1641.7z"/>
			</g>
			<g>
				<g>
					<path class="st1" d="M1461.6,1507.2c0.1-4.8-1.7-9.5-4.8-13.1c-5.3-6.2-15.6-14.9-29.6-10.4c-21,6.7-42.8,48.7-42.8,48.7
						s51.2,0,66.3-6.7C1459.6,1521.7,1461.6,1513.4,1461.6,1507.2z"/>
					<path class="st2" d="M1384.4,1532.8h-0.8l0.3-0.7c0.9-1.7,22.2-42.2,43.1-48.9c14.5-4.6,25.1,4.6,30.1,10.6
						c3.2,3.8,4.9,8.6,4.9,13.4l0,0c-0.1,6.4-2.1,14.8-11.2,18.8C1435.9,1532.8,1386.5,1532.8,1384.4,1532.8z M1434.9,1482.9
						c-2.4,0-4.9,0.4-7.5,1.2c-19.1,6.1-39.3,42.4-42.2,47.8c6.5,0,51.5-0.5,65.4-6.7c8.6-3.8,10.5-11.9,10.6-18
						c0.1-4.7-1.6-9.2-4.7-12.8C1452.6,1489.7,1445,1482.9,1434.9,1482.9z"/>
				</g>
				<path class="st2" d="M1390.2,1529.9l-0.6-0.7c0.3-0.3,34.7-28.9,60.6-32.9l0.1,0.9C1424.7,1501.2,1390.6,1529.6,1390.2,1529.9z"
					/>
				
					<rect x="1401.3" y="1519.9" transform="matrix(0.426 -0.9047 0.9047 0.426 -567.2759 2146.6345)" class="st2" width="13.4" height="0.9"/>
				
					<rect x="1410.8" y="1501.5" transform="matrix(5.945576e-02 -0.9982 0.9982 5.945576e-02 -179.178 2828.2874)" class="st2" width="0.9" height="15.5"/>
				
					<rect x="1416.7" y="1512.8" transform="matrix(0.3982 -0.9173 0.9173 0.3982 -528.5824 2220.9067)" class="st2" width="23.1" height="0.9"/>
				
					<rect x="1427.2" y="1488.7" transform="matrix(0.1153 -0.9933 0.9933 0.1153 -226.021 2744.4194)" class="st2" width="0.9" height="20.8"/>
			</g>
			<g>
				<g>
					<path class="st1" d="M1473.6,1469.9c3.9-2.8,6.6-6.9,7.8-11.6c1.9-7.9,2.8-21.4-9.2-30c-17.9-12.9-64.6-5.6-64.6-5.6
						s30.4,41.3,44.7,49.4C1460.7,1476.9,1468.6,1473.5,1473.6,1469.9z"/>
					<path class="st2" d="M1461,1475c-2.8,0-5.8-0.7-8.9-2.5c-14.3-8.1-43.6-47.9-44.9-49.6l-0.4-0.6l0.7-0.1
						c1.9-0.3,47.1-7.2,64.9,5.7c12.3,8.9,11.2,23,9.3,30.5c-1.2,4.8-4,9-7.9,11.9h0C1470.5,1472.7,1466,1475,1461,1475z
						 M1408.4,1423c3.9,5.2,31,41.2,44.1,48.7c8.2,4.7,15.8,1.4,20.8-2.1h0c3.8-2.7,6.5-6.8,7.6-11.4c1.8-7.3,2.9-20.9-9-29.6
						C1455.6,1416.9,1414.5,1422.1,1408.4,1423z"/>
				</g>
				<path class="st2" d="M1475,1455c-18.5-18.4-61.6-29-62-29.1l0.2-0.9c0.4,0.1,43.8,10.8,62.4,29.4L1475,1455z"/>
				
					<rect x="1424.5" y="1434.1" transform="matrix(0.9811 -0.1935 0.1935 0.9811 -250.5259 304.0338)" class="st2" width="13.4" height="0.9"/>
				<polygon class="st2" points="1446,1437.3 1437.5,1424.3 1438.3,1423.8 1446.7,1436.8 				"/>
				
					<rect x="1437.4" y="1446.2" transform="matrix(0.9749 -0.2227 0.2227 0.9749 -285.8004 359.0366)" class="st2" width="23.1" height="0.9"/>
				
					<rect x="1459.6" y="1427.4" transform="matrix(0.8684 -0.4959 0.4959 0.8684 -520.8113 913.192)" class="st2" width="0.9" height="20.8"/>
			</g>
			<g>
				<g>
					<path class="st1" d="M1525.1,1483.5c-0.1-4.8,1.7-9.5,4.8-13.1c5.3-6.2,15.6-14.9,29.6-10.4c21,6.7,42.8,48.7,42.8,48.7
						s-51.2,0-66.3-6.7C1527.1,1498,1525.1,1489.7,1525.1,1483.5z"/>
					<path class="st2" d="M1603,1509.1h-0.8c-2.1,0-51.5-0.1-66.5-6.8c-9.1-4-11.1-12.5-11.2-18.8l0,0c-0.1-4.9,1.7-9.7,4.9-13.4
						c5-5.9,15.6-15.2,30.1-10.6c20.9,6.7,42.2,47.2,43.1,48.9L1603,1509.1z M1525.5,1483.5c0.1,6.1,2,14.2,10.6,18
						c13.8,6.2,58.9,6.6,65.4,6.7c-2.9-5.4-23.1-41.7-42.2-47.8c-14-4.5-24.3,4.5-29.1,10.3
						C1527.1,1474.3,1525.5,1478.8,1525.5,1483.5L1525.5,1483.5z"/>
				</g>
				<path class="st2" d="M1596.5,1506.2c-0.3-0.3-34.5-28.7-60.2-32.7l0.1-0.9c26,4,60.3,32.6,60.6,32.9L1596.5,1506.2z"/>
				
					<rect x="1578.2" y="1489.9" transform="matrix(0.9051 -0.4252 0.4252 0.9051 -486.5337 813.2017)" class="st2" width="0.9" height="13.4"/>
				
					<rect x="1567.7" y="1485" transform="matrix(0.9983 -5.860750e-02 5.860750e-02 0.9983 -84.3527 94.8841)" class="st2" width="15.5" height="0.9"/>
				
					<rect x="1558" y="1478" transform="matrix(0.9171 -0.3987 0.3987 0.9171 -464.6893 744.9638)" class="st2" width="0.9" height="23.1"/>
				
					<rect x="1548.6" y="1474.9" transform="matrix(0.9933 -0.1151 0.1151 0.9933 -159.5073 189.3215)" class="st2" width="20.8" height="0.9"/>
			</g>
			<g>
				<g>
					<path class="st1" d="M1504.1,1452.3c-4.2-2.3-7.4-6.1-9.1-10.6c-2.8-7.6-5.3-20.9,5.5-30.9c16.2-15,63.5-13.3,63.5-13.3
						s-25.2,44.6-38.5,54.5C1517.6,1457.7,1509.5,1455.3,1504.1,1452.3z"/>
					<path class="st2" d="M1515.1,1455.9c-4.2,0-8.2-1.5-11.2-3.2l0,0c-4.3-2.3-7.6-6.2-9.3-10.9c-2.7-7.3-5.6-21.1,5.6-31.4
						c16.1-14.9,61.9-13.5,63.8-13.5l0.8,0l-0.4,0.7c-1,1.8-25.4,44.8-38.6,54.6C1522.2,1454.9,1518.5,1455.9,1515.1,1455.9z
						 M1560.1,1397.8c-11.5,0-46.2,1.1-59.4,13.3c-10.8,10-8,23.4-5.4,30.4c1.6,4.4,4.8,8.1,8.9,10.4l0,0c5.3,2.9,13.3,5.2,20.9-0.4
						c12.2-9,34.8-48.1,38-53.7C1562.5,1397.9,1561.5,1397.8,1560.1,1397.8z"/>
				</g>
				<path class="st2" d="M1500.9,1437.6l-0.7-0.6c16.3-20.6,58-36.5,58.5-36.6l0.3,0.9C1558.5,1401.5,1517,1417.2,1500.9,1437.6z"/>
				
					<rect x="1541.4" y="1405.4" transform="matrix(7.482985e-02 -0.9972 0.9972 7.482985e-02 18.2862 2843.9805)" class="st2" width="0.9" height="13.4"/>
				
					<rect x="1522.8" y="1409" transform="matrix(0.4394 -0.8983 0.8983 0.4394 -408.071 2165.0552)" class="st2" width="15.5" height="0.9"/>
				
					<rect x="1525.3" y="1414.7" transform="matrix(0.1037 -0.9946 0.9946 0.1037 -51.0083 2795.822)" class="st2" width="0.9" height="23.1"/>
				
					<rect x="1503.3" y="1418.3" transform="matrix(0.3885 -0.9215 0.9215 0.3885 -381.7003 2262.3486)" class="st2" width="20.8" height="0.9"/>
			</g>
			<polygon class="st2" points="1560.2,1626.3 1468.1,1627.6 1560,1637 			"/>
			<path class="st2" d="M1593.4,1582.1c0,21.1-14.1,38.9-33.3,44.6v0.1c-22.5,0.5-43.8,0.9-43.8,0.9s16.6-8.9,29.7-36.8
				c13.1-27.9-38.6-54.6-38.6-54.6l-0.5-0.6h40.1c12.8,0,24.5,5.2,32.9,13.6C1588.2,1557.6,1593.4,1569.3,1593.4,1582.1z"/>
			<g>
				<g>
					<path class="st1" d="M1494.1,1524c1.4-4.6,4.5-8.5,8.6-11c6.9-4.3,19.4-9.4,31.4-0.7c17.9,12.9,25.6,59.6,25.6,59.6
						s-48.7-15.9-61-26.9C1491.5,1538.4,1492.2,1529.9,1494.1,1524z"/>
					<path class="st2" d="M1560.3,1572.5l-0.7-0.2c-2-0.6-48.9-16-61.2-27c-7.4-6.6-6.7-15.3-4.8-21.4c1.5-4.7,4.6-8.7,8.8-11.3
						c6.6-4.1,19.5-9.6,31.9-0.7c17.8,12.8,25.5,58,25.8,59.9L1560.3,1572.5z M1519.9,1508.1c-6.9,0-13.1,2.9-17,5.3
						c-4,2.5-7,6.3-8.4,10.8l0,0c-1.8,5.8-2.5,14.1,4.5,20.4c11.3,10.1,54,24.6,60.1,26.6c-1.1-6.1-9-46.8-25.3-58.5
						C1529.1,1509.3,1524.4,1508.1,1519.9,1508.1z"/>
				</g>
				<path class="st2" d="M1555,1567.7c-0.2-0.4-23.9-38-47.1-49.7l0.4-0.8c23.5,11.9,47.2,49.7,47.5,50.1L1555,1567.7z"/>
				
					<rect x="1540.5" y="1546.4" transform="matrix(0.9923 -0.124 0.124 0.9923 -180.6731 203.0383)" class="st2" width="0.9" height="13.4"/>
				
					<rect x="1540.9" y="1533.8" transform="matrix(0.2526 -0.9676 0.9676 0.2526 -339.5336 2643.4778)" class="st2" width="0.9" height="15.5"/>
				
					<rect x="1523.5" y="1528.6" transform="matrix(0.9955 -9.515224e-02 9.515224e-02 0.9955 -139.6313 151.9963)" class="st2" width="0.9" height="23.1"/>
				
					<rect x="1528.4" y="1516.4" transform="matrix(0.1979 -0.9802 0.9802 0.1979 -270.3498 2723.208)" class="st2" width="0.9" height="20.8"/>
			</g>
		</g>
		<g>
			<g>
				<rect x="761.8" y="1469.8" class="st2" width="24.2" height="172.2"/>
				<rect x="388.8" y="1469.8" class="st2" width="24.2" height="172.2"/>
				<rect x="566.4" y="1469.8" class="st2" width="24.2" height="172.2"/>
				<g>
					<path class="st1" d="M691.4,1481.9h-312v-234.2c0-78.6,63.8-142.4,142.4-142.4h169.6V1481.9z"/>
					<path class="st2" d="M692,1482.5H378.8v-235.3c0-78.6,63.9-142.5,142.5-142.5H692V1482.5z M380,1481.3h310.9v-375.4H521.3
						c-77.9,0-141.3,63.4-141.3,141.3V1481.3z"/>
				</g>
				<path class="st2" d="M738.5,1481.9h-312v-255.4c0-66.9,54.3-121.2,121.2-121.2h45.5c80.3,0,145.3,65.1,145.3,145.3V1481.9z"/>
				<g>
					<rect x="379.4" y="1407.5" class="st5" width="407.5" height="73.5"/>
					<path class="st2" d="M787.5,1481.6H378.8v-74.7h408.7V1481.6z M380,1480.4h406.4v-72.4H380V1480.4z"/>
				</g>
				<rect x="605.4" y="1407.5" class="st2" width="181.6" height="73.5"/>
				<g>
					<path class="st2" d="M651.4,1048.1l4.4-32.8c0,0,10.4-6.8,10.8-17.6c0.4-10.8-4-24-12.4-15.2c-8.4,8.8-41.5,1.6-52.7,8.4
						c-11.2,6.8-9.2,11.6-9.2,11.6s-5.6-4.8-11.6,10.8c-6,15.6,12,53.9,12,53.9L651.4,1048.1z"/>
					<g>
						<path class="st1" d="M835,1311.8c0,0,30-6,30,32.9s3.6,233,3.6,233h-79.7v-148c0,0,1.8-26.4-15-24
							c-16.8,2.4-46.7-31.2-46.7-38.3s2.4-57.5,2.4-57.5L835,1311.8z"/>
						<path class="st2" d="M788.4,1429.8c0-0.1,0.9-14.9-5.6-21c-2.3-2.1-5.2-2.9-8.8-2.4c-9,1.3-20.8-7.5-27-12.9
							c-10.7-9.2-20.4-21.6-20.4-26c0-7.1,2.4-57,2.4-57.5l0-0.5l105.9,1.8c1-0.2,11.7-2,20.2,5c6.8,5.6,10.3,15.2,10.3,28.5
							c0,38.5,3.6,231.1,3.6,233l0,0.5h-80.7L788.4,1429.8z M864.4,1344.8c0-13-3.3-22.3-9.9-27.6c-8.4-6.9-19.3-4.8-19.4-4.8
							l-0.1,0l-105-1.8c-0.3,5.3-2.4,50.3-2.4,57c0,3.6,8.7,15.4,20,25.2c6.1,5.3,17.5,13.9,26.1,12.7c3.9-0.6,7.1,0.3,9.7,2.7
							c6.9,6.4,6,21.2,5.9,21.8v147.4H868C867.8,1565.9,864.4,1382.3,864.4,1344.8z"/>
					</g>
					<g>
						<path class="st4" d="M586.7,1102.8l3.3-33.3l-0.4-35.5c0,0,9.9,4,14.4-7.6c4.5-11.7,32.3,0.4,40.4-3.1s9.1,50.7,1.5,55.2
							c-3.6,2.1-5.9,3.1-7.4,3.5c-1.1,0.3-1.7,1.5-1.3,2.6l4.9,12.2l16.2,35.1c0,0-81,2.8-82.8,2.4
							C573.7,1133.8,586.7,1102.8,586.7,1102.8z"/>
						<path class="st2" d="M575.4,1134.7c-0.2,0-0.4-0.2-0.5-0.4c-1-2,8.3-24.7,11.3-31.7l3.3-33.2l-0.5-36.3l0.7,0.3
							c0,0,3.8,1.5,7.6-0.1c2.7-1.2,4.7-3.6,6.1-7.2c2.9-7.6,14.8-5.7,25.3-4.1c6.4,1,12.4,1.9,15.4,0.6c1-0.4,2.5-0.4,3.9,2.2
							c5.1,9.9,4.8,49.9-1.9,53.9c-3,1.8-5.6,3-7.5,3.6c-0.4,0.1-0.7,0.4-0.9,0.8c-0.2,0.4-0.2,0.8,0,1.2l4.9,12.2l16.6,35.8l-0.8,0
							c-7.6,0.3-69.7,2.4-81.2,2.4C576.2,1134.8,575.5,1134.8,575.4,1134.7z M641.6,1096.9l-4.9-12.2c-0.3-0.6-0.2-1.4,0.1-2
							c0.3-0.6,0.9-1.1,1.6-1.3c1.3-0.4,3.6-1.3,7.2-3.4c6.3-3.7,6.3-43.2,1.5-52.5c-1.2-2.3-2.2-1.9-2.5-1.7
							c-3.3,1.4-9.4,0.5-16-0.5c-10.1-1.6-21.6-3.4-24.2,3.4c-1.5,3.9-3.8,6.5-6.7,7.8c-3.2,1.4-6.3,0.8-7.6,0.4l0.4,34.8l-3.3,33.3
							l0,0.2c-4.5,10.8-11.4,28.2-11.3,30.7c4.1,0.2,54.4-1.4,81.7-2.4L641.6,1096.9z"/>
					</g>
					<g>
						<path class="st3" d="M642.6,1105.4c0,0-23.2,15.2-55.5,1.4l-43.5,199.8h143.8c0,0-4-79.9-10.4-95.1
							c-6.4-15.2-29.6-71.1-29.6-73.5C647.4,1135.5,642.6,1105.4,642.6,1105.4z"/>
						<path class="st2" d="M586.6,1106.7l0.1-0.6l0.6,0.2c31.7,13.5,54.8-1.2,55-1.4l0.7-0.4l0.1,0.8c0.2,1.2,4.8,30.2,4.8,32.6
							c0.1,2.5,22.4,56.5,29.5,73.3c6.4,15.1,10.3,92,10.4,95.3l0,0.5h-145L586.6,1106.7z M676.5,1211.7c-3.7-8.8-29.6-71-29.6-73.7
							c0-1.8-3-21.1-4.7-31.7c-4.1,2.3-25.9,13.3-54.8,1.3L544.2,1306h142.6C686.5,1298.9,682.5,1225.9,676.5,1211.7z"/>
					</g>
					<g>
						<path class="st1" d="M636.7,1117.7c0,0,5.4-1.8,5.4-21c0,0,60.5,3.6,66.5,19.8c6,16.2,34.1,192.3,34.1,192.3h-88.1
							L636.7,1117.7z"/>
						<path class="st2" d="M636.2,1117.8l0-0.4l0.4-0.1c0.1,0,5-2.1,5-20.5v-0.6l0.6,0c2.5,0.1,60.9,3.8,67,20.1
							c5.9,16,33,185.2,34.2,192.4l0.1,0.6h-89.1L636.2,1117.8z M708.1,1116.7c-5.5-14.9-59.4-19-65.5-19.4
							c-0.1,16.1-4.1,19.9-5.4,20.7l17.9,190.3h87C740.3,1296.9,713.9,1132.2,708.1,1116.7z"/>
					</g>
					<g>
						<path class="st1" d="M516.9,1304c0,0-19.8,93.5,16.2,103h149.2v179.1h94.7v-225.2c0,0,1.2-48.5-37.1-50.3
							C701.4,1308.8,516.9,1304,516.9,1304z"/>
						<path class="st2" d="M681.7,1407.6H533.1l-0.1,0c-15-4-22.5-23.2-22-55.6c0.4-24.3,5.4-47.8,5.4-48l0.1-0.4l0.4,0
							c1.8,0,185,4.8,222.9,6.6c38.4,1.8,37.7,50.4,37.6,50.8v225.8h-95.7V1407.6z M776.4,1360.9c0-0.5,0.7-48-36.6-49.8
							c-37-1.7-212.3-6.3-222.4-6.6c-1.4,6.8-17.9,92.9,15.8,102h149.6v179.1h93.6V1360.9z"/>
					</g>
					<g>
						<g>
							
								<rect x="616.3" y="1290.2" transform="matrix(-1 -4.489532e-11 4.489532e-11 -1 1441.4814 2601.4915)" class="st5" width="208.9" height="21.2"/>
							<path class="st2" d="M615.7,1289.6h210v22.2h-210V1289.6z M824.7,1290.7H616.8v20.1h207.9V1290.7z"/>
						</g>
						<g>
							<polygon class="st3" points="888.3,1181.8 741.9,1181.8 692.4,1311.2 840.7,1311.2 							"/>
							<path class="st2" d="M741.4,1181.6l0.1-0.3h147.6l-47.9,130.1l-0.1,0.3H691.7L741.4,1181.6z M887.6,1182.3H742.2l-49,128.4
								h147.1L887.6,1182.3z"/>
						</g>
						<g>
							<circle class="st5" cx="799" cy="1244.7" r="14.4"/>
							<path class="st2" d="M784.1,1244.7c0-8.2,6.7-14.9,14.9-14.9s14.9,6.7,14.9,14.9c0,8.2-6.7,14.9-14.9,14.9
								S784.1,1253,784.1,1244.7z M785.1,1244.7c0,7.6,6.2,13.9,13.9,13.9s13.9-6.2,13.9-13.9c0-7.6-6.2-13.9-13.9-13.9
								S785.1,1237.1,785.1,1244.7z"/>
						</g>
					</g>
					<g>
						<path class="st4" d="M618.3,1262.6c0,0,43.9-3.2,49.5-0.4c5.6,2.8,26.4,27.2,24.4,28c-2,0.8-41.1,0-41.1,0s-19.6,8-29.2,8.4
							c-9.6,0.4-15.6-1.6-15.6-1.6L618.3,1262.6z"/>
						<path class="st2" d="M606.1,1297.4l-0.5-0.2l12.2-34.9l0.1-0.3l0.3,0c1.8-0.1,44.2-3.2,49.8-0.3c5.2,2.6,24.9,25,24.8,28.2
							c0,0.3-0.2,0.6-0.5,0.7c-2,0.8-36.7,0.1-41.2,0c-1.7,0.7-19.9,8-29.2,8.4c-0.9,0-1.7,0.1-2.6,0.1
							C611.3,1299.1,606.3,1297.5,606.1,1297.4z M651,1289.6c15.1,0.3,37.9,0.6,40.7,0.1c-0.7-3.2-19.1-24.5-24.2-27.1
							c-4.3-2.1-33.7-0.7-48.9,0.4l-11.7,33.5c1.6,0.5,7.1,1.7,14.9,1.4c9.4-0.4,28.8-8.3,29-8.4l0.1,0L651,1289.6z"/>
					</g>
					<g>
						<path class="st1" d="M587.3,1098.2l-48.4,7.1c-4.1,0.6-7.8,2.9-10.2,6.4c-17.3,25.8-88.5,135.3-72.7,166.2
							c18,35,158.2,29.7,158.2,29.7l7.2-49.4h-23.4l5.4-139.3C603.5,1118.9,591.8,1119.8,587.3,1098.2z"/>
						<path class="st2" d="M455.6,1278.2c-15.7-30.6,51.7-135.3,72.7-166.7c2.4-3.6,6.2-6,10.5-6.6l48.4-7.1l0.5-0.1l0.1,0.5
							c4.3,20.8,15.5,20.3,15.6,20.3l0.6,0l-5.4,139.3h23.4l-7.3,50l-0.1,0.4l-0.4,0c-1.3,0-9.3,0.3-21.1,0.3
							C553.1,1308.5,469.5,1305.2,455.6,1278.2z M620.8,1258.7h-23.3l5.4-139.3c-2.5-0.1-12-1.8-16-20.6l-47.9,7.1
							c-4,0.6-7.6,2.8-9.8,6.2c-14.9,22.2-88.5,134.8-72.6,165.6c17.1,33.4,148.6,29.7,157.2,29.4L620.8,1258.7z"/>
					</g>
					<polygon class="st2" points="645.5,1200.8 660,1140.9 650.5,1135.9 661.8,1129.9 674.3,1101.4 673.3,1101 661,1129.2 
						648.3,1136 658.8,1141.4 644.5,1200.5 					"/>
					<polygon class="st2" points="599,1204.8 600,1204.5 578.9,1142.5 587.9,1133.5 568.3,1133 552.8,1103 551.9,1103.4 
						567.6,1134.1 585.5,1134.4 577.7,1142.2 577.8,1142.5 					"/>
					<g>
						<path class="st1" d="M549.2,1163.9L520,1249c0,0,48.3,10,78.1,9.2"/>
						<path class="st2" d="M594.6,1258.8c1.2,0,2.3,0,3.5,0l0-1c-27.6,0.7-71.8-7.9-77.4-9.1l29-84.5l-1-0.3l-29.4,85.7l0.6,0.1
							C520.3,1249.6,565,1258.8,594.6,1258.8z"/>
					</g>
					<g>
						<path class="st1" d="M520,1249c0,0-25.6,0.4-33.6,13.6"/>
						<path class="st2" d="M486.9,1262.9c7.7-12.8,32.9-13.3,33.1-13.3l0-1c-1.1,0-25.9,0.6-34,13.8L486.9,1262.9z"/>
					</g>
					<g>
						<path class="st1" d="M520.5,1248.1c0,0-17.2-6.1-28,0.8"/>
						<path class="st2" d="M492.8,1249.3c10.4-6.7,27.3-0.8,27.5-0.7l0.4-1c-0.7-0.3-17.5-6.1-28.4,0.9L492.8,1249.3z"/>
					</g>
					<g>
						<line class="st1" x1="689.2" y1="1157.9" x2="694" y2="1273.5"/>
						
							<rect x="691.1" y="1157.9" transform="matrix(0.9992 -4.098117e-02 4.098117e-02 0.9992 -49.2405 29.3657)" class="st2" width="1" height="115.7"/>
					</g>
					<g>
						<line class="st1" x1="681.8" y1="1169.1" x2="691.9" y2="1234.1"/>
						
							<rect x="686.3" y="1168.7" transform="matrix(0.988 -0.1543 0.1543 0.988 -177.1351 120.3342)" class="st2" width="1" height="65.8"/>
					</g>
					<ellipse class="st4" cx="591.4" cy="1042.9" rx="6.1" ry="11"/>
					<circle class="st2" cx="621.3" cy="1041.3" r="2.8"/>
					<circle class="st2" cx="642.2" cy="1041.3" r="2.8"/>
					<g>
						<path class="st4" d="M636.1,1042.9c0,0,5.9,14,3.2,14.5c-2.7,0.5-11.3-2.3-11.3-2.3"/>
						<path class="st2" d="M638.5,1058c0.3,0,0.6,0,0.9-0.1c0.4-0.1,0.7-0.3,0.9-0.7c1.3-2.4-2.8-12.6-3.7-14.6l-1,0.4
							c1.9,4.5,4.5,12.1,3.7,13.7c-0.1,0.1-0.1,0.1-0.1,0.1c-2.1,0.4-8.7-1.5-11.1-2.2l-0.3,1C628.2,1055.7,635.2,1058,638.5,1058z"
							/>
					</g>
					<path class="st6" d="M642.8,1063.4l-23.4-4C619.3,1059.4,632.1,1079.9,642.8,1063.4z"/>
					<path class="st2" d="M638,1081.6c0,0-15.5,3.2-24.7-3.8s-14.2-13-14.2-13s6.7,31.8,41.3,26.2L638,1081.6z"/>
				</g>
				<g>
					<path class="st5" d="M868.6,1577.8c0,0,64.1,25.7,63.1,42.2H806.4l-7.5-42.6L868.6,1577.8z"/>
					<path class="st2" d="M932.2,1620.6H805.9l-7.7-43.8l70.5,0.4c2.6,1.1,64.5,26.1,63.4,42.8L932.2,1620.6z M806.9,1619.4H931
						c-0.4-15.6-59.7-39.9-62.6-41.1l-68.8-0.4L806.9,1619.4z"/>
				</g>
				<g>
					<path class="st5" d="M776.9,1586.2c0,0,59.9,30.4,70.3,55.9H706.6l-5.6-55.9L776.9,1586.2z"/>
					<path class="st2" d="M848.1,1642.7H706l-5.7-57.1l76.7,0l0.1,0.1c2.5,1.2,60.2,30.8,70.6,56.2L848.1,1642.7z M707.1,1641.5
						h139.2c-10.9-24.4-66.5-53.2-69.5-54.8l-75.2,0L707.1,1641.5z"/>
				</g>
			</g>
			<path class="st2" d="M615.2,1033.3c0,0,12.3,2.3,12.3,1.6s-8.7-4-10.9-3.5C614.5,1031.8,615.2,1033.3,615.2,1033.3z"/>
			<path class="st2" d="M636.1,1035.2c0,0,9.6-5.1,10.1-4C646.6,1032.3,647.7,1035.2,636.1,1035.2z"/>
		</g>
	</g>
	<g>
		<g>
			<path class="st4" d="M1371.9,405.9h-81.6c-14.6,0-26.5,11.9-26.5,26.5V514c0,14.6,11.9,26.5,26.5,26.5h66.1l24.4,36.2l4.7-39.9
				c7.8-4.6,13-13.1,13-22.8v-81.6C1398.4,417.7,1386.5,405.9,1371.9,405.9z"/>
			<path class="st2" d="M1381.1,578.3l-25.1-37.2h-65.8c-14.9,0-27.1-12.2-27.1-27.1v-81.6c0-14.9,12.2-27.1,27.1-27.1h81.6
				c14.9,0,27.1,12.2,27.1,27.1V514c0,9.4-5,18.2-13,23.1L1381.1,578.3z M1290.2,406.5c-14.3,0-25.9,11.6-25.9,25.9V514
				c0,14.3,11.6,25.9,25.9,25.9h66.4l0.2,0.3l23.5,34.9l4.5-38.6l0.2-0.1c7.8-4.7,12.7-13.2,12.7-22.3v-81.6
				c0-14.3-11.6-25.9-25.9-25.9H1290.2z"/>
		</g>
		<path class="st6" d="M1360.8,444.3c-3.6-2.6-7.8-3.9-12-3.9c-6.3,0-12.5,2.9-16.5,8.4l-1,1.3l-1-1.3c-4-5.5-10.2-8.4-16.5-8.4
			c-4.2,0-8.4,1.3-12,3.9c-3.5,2.6-6,6.1-7.3,9.9c-2.6,7.6-0.1,15.9,5.8,21.2l32.8,29.4l30.1-30.1c3-3,5.1-6.8,5.7-11
			C1370,456.5,1367.1,448.9,1360.8,444.3z"/>
	</g>
	<g>
		<g>
			<path class="st4" d="M716.9,625.5h-48.5c-8.7,0-15.8,7.1-15.8,15.8v48.5c0,8.7,7.1,15.8,15.8,15.8h39.3l14.5,21.5l2.8-23.7
				c4.6-2.7,7.7-7.8,7.7-13.5v-48.5C732.6,632.5,725.6,625.5,716.9,625.5z"/>
			<path class="st2" d="M722.5,728.6L707.3,706h-39c-9,0-16.3-7.3-16.3-16.3v-48.5c0-9,7.3-16.3,16.3-16.3h48.5
				c9,0,16.3,7.3,16.3,16.3v48.5c0,5.6-3,10.9-7.7,13.9L722.5,728.6z M668.4,626c-8.4,0-15.2,6.8-15.2,15.2v48.5
				c0,8.4,6.8,15.2,15.2,15.2H708l13.8,20.5l2.6-22.4l0.2-0.1c4.6-2.7,7.4-7.7,7.4-13v-48.5c0-8.4-6.8-15.2-15.2-15.2H668.4z"/>
		</g>
		<path class="st6" d="M710.3,648.3c-2.2-1.6-4.7-2.3-7.1-2.3c-3.7,0-7.4,1.7-9.8,5l-0.6,0.8l-0.6-0.8c-2.4-3.3-6.1-5-9.8-5
			c-2.5,0-5,0.8-7.1,2.3c-2.1,1.5-3.6,3.6-4.3,5.9c-1.5,4.5-0.1,9.5,3.5,12.6l19.5,17.5l17.9-17.9c1.8-1.8,3-4.1,3.4-6.6
			C715.8,655.5,714.1,651,710.3,648.3z"/>
	</g>
	<g>
		<g>
			<path class="st4" d="M1696,864h-48.5c-8.7,0-15.8,7.1-15.8,15.8v48.5c0,8.7,7.1,15.8,15.8,15.8h39.3l14.5,21.5l2.8-23.7
				c4.6-2.7,7.7-7.8,7.7-13.5v-48.5C1711.8,871,1704.7,864,1696,864z"/>
			<path class="st2" d="M1701.7,967.1l-15.2-22.6h-39c-9,0-16.3-7.3-16.3-16.3v-48.5c0-9,7.3-16.3,16.3-16.3h48.5
				c9,0,16.3,7.3,16.3,16.3v48.5c0,5.6-3,10.9-7.7,13.9L1701.7,967.1z M1647.5,864.5c-8.4,0-15.2,6.8-15.2,15.2v48.5
				c0,8.4,6.8,15.2,15.2,15.2h39.6l13.8,20.5l2.6-22.4l0.2-0.1c4.6-2.7,7.4-7.7,7.4-13v-48.5c0-8.4-6.8-15.2-15.2-15.2H1647.5z"/>
		</g>
		<path class="st6" d="M1689.5,886.8c-2.2-1.6-4.7-2.3-7.1-2.3c-3.7,0-7.4,1.7-9.8,5l-0.6,0.8l-0.6-0.8c-2.4-3.3-6.1-5-9.8-5
			c-2.5,0-5,0.8-7.1,2.3c-2.1,1.5-3.6,3.6-4.3,5.9c-1.5,4.5-0.1,9.5,3.5,12.6l19.5,17.5l17.9-17.9c1.8-1.8,3-4.1,3.4-6.6
			C1694.9,894.1,1693.2,889.6,1689.5,886.8z"/>
	</g>
</g>
</svg>
